Coordinates
version=1
nRows=30
nColumns=38
inDegrees=no

Units are S.I. units (second, meters, Newtons, ...)
If the header above contains a line with 'inDegrees', this indicates whether rotational values are in degrees (yes) or radians (no).

endheader
time	pelvis_tilt	pelvis_list	pelvis_rotation	pelvis_tx	pelvis_ty	pelvis_tz	hip_flexion_r	hip_adduction_r	hip_rotation_r	knee_angle_r	ankle_angle_r	subtalar_angle_r	mtp_angle_r	hip_flexion_l	hip_adduction_l	hip_rotation_l	knee_angle_l	ankle_angle_l	subtalar_angle_l	mtp_angle_l	lumbar_extension	lumbar_bending	lumbar_rotation	arm_flex_r	arm_add_r	arm_rot_r	elbow_flex_r	pro_sup_r	wrist_flex_r	wrist_dev_r	arm_flex_l	arm_add_l	arm_rot_l	elbow_flex_l	pro_sup_l	wrist_flex_l	wrist_dev_l
0.46	0.253207	1.36761	1.31867	0.694972	-0.0908278	1.03711	-0.0419387	0.0799252	-0.256697	0.0951515	-0.138442	0	0	0.499466	-0.0962096	-0.26607	0.0740164	-0.222851	0	0	0.049482	0.0409599	0.0949987	-0.0262889	-0.3505	0.0575739	0.960778	1.5708	0	0	-0.153644	-0.308714	0.609701	0.505627	0.949234	0	0
0.47	0.266435	1.3614	1.30292	0.694222	-0.0785161	1.03324	-0.0487998	0.0833012	-0.25414	0.0979135	-0.130298	0	0	0.508559	-0.0965016	-0.262825	0.0385163	-0.225189	0	0	0.0523575	0.0454972	0.0967213	-0.0288427	-0.353668	0.0500328	0.980459	1.5708	0	0	-0.153364	-0.30737	0.617295	0.503702	0.944098	0	0
0.48	0.277873	1.35527	1.28923	0.693476	-0.0660455	1.02931	-0.0549745	0.0861467	-0.252328	0.102644	-0.121611	0	0	0.516967	-0.0965286	-0.256052	0.00625384	-0.226771	0	0	0.0551141	0.0493344	0.098469	-0.031604	-0.355716	0.0420714	0.998087	1.5708	0	0	-0.152423	-0.306617	0.625097	0.502048	0.939348	0	0
0.49	0.287483	1.35023	1.27728	0.69277	-0.0533951	1.02547	-0.0613367	0.0882368	-0.251256	0.109078	-0.114811	0	0	0.525868	-0.0970493	-0.253118	0	-0.225139	0	0	0.0570225	0.0521191	0.0993697	-0.0327496	-0.356508	0.0359075	1.01178	1.5708	0	0	-0.15178	-0.306239	0.63117	0.500682	0.936292	0	0
0.5	0.293041	1.34521	1.26877	0.692116	-0.0405511	1.02169	-0.0661112	0.0890022	-0.249111	0.119039	-0.105703	0	0	0.534721	-0.0972891	-0.250743	0	-0.218885	0	0	0.0586764	0.0538961	0.102159	-0.035812	-0.356713	0.0283641	1.02537	1.5708	0	0	-0.149532	-0.305935	0.638346	0.498481	0.932732	0	0
0.51	0.29327	1.34167	1.26502	0.691511	-0.0274484	1.01815	-0.0710245	0.0876241	-0.246886	0.130942	-0.0971059	0	0	0.541506	-0.0961969	-0.250241	0	-0.210028	0	0	0.059448	0.0534661	0.106079	-0.0388567	-0.355617	0.0210743	1.03554	1.5708	0	0	-0.146412	-0.306069	0.645792	0.495687	0.930102	0	0
0.52	0.28951	1.34046	1.26529	0.690899	-0.0141094	1.015	-0.0769764	0.0840422	-0.245158	0.145189	-0.0895074	0	0	0.545575	-0.0934316	-0.250695	0	-0.201536	0	0	0.0580049	0.0507631	0.110461	-0.0418453	-0.352899	0.0130768	1.04297	1.5708	0	0	-0.142357	-0.306715	0.652577	0.492929	0.927536	0	0
0.53	0.2819	1.34108	1.26942	0.690321	-0.000436212	1.01226	-0.083654	0.0785416	-0.243754	0.161541	-0.083476	0	0	0.547137	-0.089375	-0.251327	0	-0.196967	0	0	0.0551528	0.0460252	0.115204	-0.0454298	-0.348759	0.00487498	1.04783	1.5708	0	0	-0.137947	-0.307885	0.65859	0.490345	0.925395	0	0
0.54	0.269905	1.34311	1.2778	0.689817	0.0136027	1.0099	-0.09061	0.0712504	-0.242163	0.180315	-0.077709	0	0	0.546292	-0.0843335	-0.252214	0	-0.199187	0	0	0.0513941	0.0392981	0.121666	-0.0509975	-0.342895	-0.00547269	1.05094	1.5708	0	0	-0.132241	-0.309766	0.666209	0.487509	0.923137	0	0
0.55	0.257623	1.34591	1.28591	0.689377	0.0280228	1.00788	-0.0975003	0.0634056	-0.239617	0.200842	-0.0763383	0	0	0.544435	-0.0800827	-0.255585	0.0134734	-0.20734	0	0	0.047884	0.0322357	0.127852	-0.0562302	-0.336942	-0.0125221	1.05051	1.5708	0	0	-0.127641	-0.311588	0.671776	0.484878	0.921234	0	0
0.56	0.244603	1.34889	1.29511	0.688859	0.0428563	1.00613	-0.103834	0.0548569	-0.236948	0.223081	-0.0789789	0	0	0.542041	-0.0760496	-0.26059	0.0397615	-0.217403	0	0	0.0454227	0.0250402	0.132979	-0.0617601	-0.330032	-0.0189139	1.04683	1.5708	0	0	-0.124425	-0.313357	0.675496	0.482753	0.919634	0	0
0.57	0.230429	1.35127	1.30546	0.688313	0.0580881	1.00456	-0.108435	0.0457967	-0.23313	0.247568	-0.085389	0	0	0.538575	-0.0715353	-0.263768	0.0650166	-0.229599	0	0	0.0448773	0.017787	0.137501	-0.0677954	-0.322276	-0.0245098	1.03985	1.5708	0	0	-0.122763	-0.31517	0.677505	0.481211	0.918174	0	0
0.58	0.213224	1.35232	1.31883	0.687751	0.0736474	1.00318	-0.109907	0.0361889	-0.227079	0.274807	-0.0953378	0	0	0.535842	-0.0660646	-0.265682	0.0859814	-0.245127	0	0	0.0472168	0.01017	0.14166	-0.0743351	-0.314229	-0.0278362	1.0293	1.5708	0	0	-0.122498	-0.316959	0.677249	0.479921	0.916359	0	0
0.59	0.189632	1.35092	1.33933	0.687141	0.0892767	1.00207	-0.106124	0.0257664	-0.217634	0.305926	-0.110531	0	0	0.537066	-0.0595349	-0.267151	0.103723	-0.264507	0	0	0.0531955	0.00113636	0.144539	-0.0800477	-0.305317	-0.028354	1.01364	1.5708	0	0	-0.122928	-0.318999	0.675141	0.478537	0.914144	0	0
0.6	0.160395	1.34702	1.36745	0.686485	0.10471	1.00136	-0.0963073	0.0149343	-0.204791	0.342285	-0.129774	0	0	0.542602	-0.0528968	-0.264889	0.122655	-0.281761	0	0	0.0617232	-0.00979483	0.14494	-0.083699	-0.29568	-0.0249353	0.992422	1.5708	0	0	-0.122926	-0.321371	0.671796	0.476481	0.911718	0	0
0.61	0.128485	1.34074	1.40097	0.685719	0.119834	1.00101	-0.0804418	0.00405432	-0.189169	0.384383	-0.156022	0	0	0.551174	-0.0470922	-0.257531	0.145929	-0.293272	0	0	0.0725997	-0.0219252	0.141444	-0.08463	-0.284965	-0.0184009	0.965542	1.5708	0	0	-0.12323	-0.324239	0.667139	0.474796	0.909072	0	0
0.62	0.0964494	1.33455	1.43731	0.684766	0.13467	1.0011	-0.0614511	-0.00737091	-0.172809	0.43124	-0.187319	0	0	0.559872	-0.0409144	-0.247566	0.175038	-0.290571	0	0	0.0824442	-0.0347468	0.134671	-0.0835788	-0.274152	-0.00975667	0.935353	1.5708	0	0	-0.12322	-0.327784	0.661798	0.474942	0.906784	0	0
0.63	0.0641335	1.32972	1.4761	0.683584	0.149329	1.00157	-0.0413633	-0.0197962	-0.157336	0.480685	-0.225237	0	0	0.56673	-0.0331671	-0.236229	0.207949	-0.276909	0	0	0.0899806	-0.0479529	0.124781	-0.081279	-0.263674	0.0011543	0.903639	1.5708	0	0	-0.123652	-0.33228	0.654288	0.47854	0.902627	0	0
0.64	0.0319087	1.32647	1.51585	0.682219	0.163794	1.00239	-0.020871	-0.0326946	-0.142684	0.531422	-0.271094	0	0	0.570588	-0.0235935	-0.223924	0.241233	-0.257444	0	0	0.0952398	-0.0609816	0.11222	-0.0773212	-0.254533	0.0166218	0.870415	1.5708	0	0	-0.124939	-0.337381	0.644877	0.485167	0.898654	0	0
0.65	0.00156509	1.32534	1.55321	0.680748	0.178051	1.00346	-0.000384454	-0.0450925	-0.128494	0.584183	-0.317379	0	0	0.570574	-0.0136683	-0.213046	0.272739	-0.237025	0	0	0.0969547	-0.0728817	0.0996923	-0.0728491	-0.247328	0.034727	0.83779	1.5708	0	0	-0.124795	-0.342401	0.637531	0.492782	0.895659	0	0
0.66	-0.0257261	1.32635	1.58527	0.679224	0.192104	1.00462	0.0205821	-0.0564807	-0.113917	0.639502	-0.363591	0	0	0.567648	-0.00554072	-0.208556	0.303121	-0.215433	0	0	0.0954626	-0.0824413	0.0890848	-0.0685483	-0.24276	0.0555793	0.807356	1.5708	0	0	-0.123044	-0.347053	0.633209	0.501644	0.892736	0	0
0.67	-0.0492656	1.32965	1.61002	0.677816	0.206021	1.00577	0.0420643	-0.066449	-0.0987089	0.696588	-0.411259	0	0	0.562831	-0.00126402	-0.215574	0.334739	-0.193618	0	0	0.0914429	-0.0891798	0.0818108	-0.0647383	-0.240844	0.0796877	0.779291	1.5708	0	0	-0.120006	-0.351309	0.631198	0.511686	0.889489	0	0
0.68	-0.0706051	1.33433	1.62835	0.676719	0.219783	1.00694	0.0646381	-0.0750457	-0.0825737	0.753037	-0.461879	0	0	0.555183	-0.000514533	-0.231347	0.363722	-0.173994	0	0	0.0861434	-0.0938455	0.0788687	-0.0608649	-0.240793	0.10727	0.752217	1.5708	0	0	-0.115552	-0.355435	0.63142	0.522323	0.886745	0	0
0.69	-0.08816	1.33884	1.63975	0.675907	0.233387	1.00815	0.0889886	-0.081847	-0.0664253	0.806594	-0.512563	0	0	0.543418	-0.000682573	-0.243887	0.383167	-0.156986	0	0	0.0816257	-0.0966174	0.0794531	-0.0564662	-0.241795	0.138423	0.724285	1.5708	0	0	-0.109891	-0.359243	0.633683	0.532608	0.885973	0	0
0.7	-0.0987418	1.34286	1.64199	0.675306	0.246887	1.00945	0.114513	-0.0860706	-0.0497887	0.856783	-0.548097	0	0	0.529048	-0.00220271	-0.253992	0.396566	-0.141302	0	0	0.0785271	-0.0968796	0.0831297	-0.0526042	-0.243476	0.171173	0.696248	1.5708	0	0	-0.103024	-0.362166	0.637091	0.541925	0.88887	0	0
0.71	-0.101851	1.34668	1.63452	0.674902	0.260303	1.01093	0.140433	-0.0876098	-0.0316997	0.903662	-0.561239	0	0	0.512532	-0.00529648	-0.264138	0.405469	-0.125346	0	0	0.0769045	-0.0945911	0.0880298	-0.0468897	-0.246044	0.21044	0.665786	1.5708	0	0	-0.0966561	-0.363917	0.63862	0.550436	0.893674	0	0
0.72	-0.0988565	1.3505	1.62001	0.674604	0.273693	1.01263	0.165814	-0.0870858	-0.0147414	0.946085	-0.551173	0	0	0.493837	-0.00900051	-0.274252	0.409463	-0.111118	0	0	0.0756801	-0.0899623	0.0940573	-0.0413709	-0.248742	0.251315	0.635679	1.5708	0	0	-0.0898864	-0.363964	0.638261	0.557177	0.902693	0	0
0.73	-0.0921113	1.35381	1.60309	0.674317	0.28705	1.01456	0.190701	-0.0856472	-0.00158686	0.983769	-0.522916	0	0	0.47378	-0.0122212	-0.283075	0.408715	-0.0993103	0	0	0.075994	-0.0845173	0.0969262	-0.0338634	-0.250547	0.298129	0.602887	1.5708	0	0	-0.085642	-0.363323	0.631585	0.56413	0.915998	0	0
0.74	-0.0824716	1.35561	1.58629	0.673932	0.300212	1.01662	0.216369	-0.0834664	0.00818862	1.01825	-0.48422	0	0	0.454498	-0.0148518	-0.290914	0.404545	-0.0913724	0	0	0.0782284	-0.0788803	0.095375	-0.0253187	-0.251085	0.348329	0.569153	1.5708	0	0	-0.0839097	-0.36213	0.616923	0.571963	0.934929	0	0
0.75	-0.0725321	1.35689	1.57207	0.673373	0.31335	1.0188	0.241628	-0.0817241	0.0140495	1.04866	-0.443087	0	0	0.435029	-0.0164109	-0.296583	0.397212	-0.0867415	0	0	0.0813532	-0.0733846	0.0909429	-0.0182527	-0.250553	0.396303	0.537112	1.5708	0	0	-0.0836145	-0.360725	0.597814	0.580865	0.95796	0	0
